<svg xmlns="http://www.w3.org/2000/svg" width="73.27" height="93.939" viewBox="0 0 73.27 93.939"><defs><style>.a{fill:#2e2e2e;}</style></defs><g transform="translate(-2778.348 -3382.536)"><path class="a" d="M2809.089,3386.7a31.838,31.838,0,0,1,9.378-3.455,25.732,25.732,0,0,1,18.953,2.961c3.123,1.838,3.535,2.979,6.712,4.344a21.617,21.617,0,0,0,6.12,1.579c.988.124,7.568.89,12.043-1.382,1.549-.787,3.188-1.388,4.738-2.172a8.345,8.345,0,0,1,1.58-.592,3.8,3.8,0,0,1,1.974-.2,2.94,2.94,0,0,1,1.678,1.283q.013,20.439.026,40.878a29.336,29.336,0,0,1-10.983,5.615,33.325,33.325,0,0,1-15,0,22.274,22.274,0,0,1-2.566-.79c-3.593-1.356-4.686-2.86-7.9-4.739a23.656,23.656,0,0,0-6.515-2.764,21.93,21.93,0,0,0-7.9-.395,27.046,27.046,0,0,0-11.155,3.85q.049-2.715.1-5.429a30.231,30.231,0,0,1,5.923-2.369,26.529,26.529,0,0,1,14.609-.4,34.675,34.675,0,0,1,8.094,3.751c2.366,1.379,2.5,1.729,3.948,2.567,7.216,4.174,15.673,2.284,16.979,1.974a25.031,25.031,0,0,0,7.5-3.159q-.1-16.88-.2-33.76a29.061,29.061,0,0,1-19.348,2.961,26.682,26.682,0,0,1-6.712-2.369c-3-1.566-3.722-2.728-6.12-4.146a21.42,21.42,0,0,0-9.476-2.764c-8.267-.676-14.688,3.739-16.682,5.232Q2808.99,3389.756,2809.089,3386.7Z" transform="translate(-20.672 -0.05)"/><rect class="a" width="6.515" height="88.841" rx="2.416" transform="translate(2778.348 3387.633)"/></g></svg>