<svg xmlns="http://www.w3.org/2000/svg" width="112.805" height="95.238" viewBox="0 0 112.805 95.238">
  <defs>
    <style>.a{fill:#2e2e2e;}</style>
  </defs>
  <g transform="translate(-366 -470.477)">
    <g transform="translate(-1434.975 -2911.562)">
      <path class="a" d="M1835.982,3462.607l41.066-32.533a3.5,3.5,0,0,1,1.6-.533,3.555,3.555,0,0,1,2.133.533l40.5,32.533v43.2h-31.97v-28.8a3.965,3.965,0,0,0-2.4-2.4h-17.333a2.548,2.548,0,0,0-2.267,2.267v28.933h-31.333Z" transform="translate(-21.029 -28.529)"/><path class="a" d="M1801.353,3425.812a6.172,6.172,0,0,0,.533,5.333,6.081,6.081,0,0,0,6.933,2.134l49.066-38.933,47.466,37.866a5.513,5.513,0,0,0,6.4,0,5.587,5.587,0,0,0,1.066-7.467l-20.266-16v-19.2h-14.384v8l-18.149-14.4a3.981,3.981,0,0,0-3.2-1.067,3.742,3.742,0,0,0-2.065,1.067Z"/>
    </g>
  </g>
</svg>