<svg xmlns="http://www.w3.org/2000/svg" width="111.387" height="96.426" viewBox="0 0 111.387 96.426"><defs><style>.a,.c{fill:none;stroke:#2e2e2e;stroke-miterlimit:10;}.a{stroke-width:4px;}.b{font-size:32px;font-family:Helvetica-Bold, Helvetica;font-weight:700;}.c{stroke-width:5px;}</style></defs><g transform="translate(-3176.85 -3379.492)"><g transform="translate(3229.653 3417.333)"><circle class="a" cx="28.292" cy="28.292" r="28.292" transform="translate(0)"/><text class="b" transform="translate(19.239 37.41)"><tspan x="0" y="0">$</tspan></text></g><path class="c" d="M3236.835,3465.121a101.668,101.668,0,0,1-44.071.749,97.344,97.344,0,0,1-13.39-3.827q.513-37.452,1.026-74.905a102.415,102.415,0,0,1,69.774,2.052l-.113,29.436"/><path class="c" d="M3182.02,3403.2a120.79,120.79,0,0,0,69.774,0" transform="translate(-1.619 -12.98)"/><path class="c" d="M3182.02,3453.46a149.827,149.827,0,0,0,69.774,0" transform="translate(-1.619 -43.747)"/><path class="c" d="M3179.374,3519.6a68.985,68.985,0,0,0,14.365,4.1c3.393.581,6.558.859,15.392,1.026,5.2.1,12.183.155,20.521,0" transform="translate(0 -84.231)"/></g></svg>