<svg xmlns="http://www.w3.org/2000/svg" width="90.288" height="94.498" viewBox="0 0 90.288 94.498"><defs><style>.a{fill:#2e2e2e;}.b{fill:#fff;}</style></defs><g transform="translate(-735 -471.547)"><g transform="translate(-1568.228 -2912.953)"><path class="a" d="M2303.572,3394.306a11.251,11.251,0,0,1,8.516-9.72l37.265-.086,24.412,24.43v15.128a2.2,2.2,0,0,1-2.323,1.646,2.173,2.173,0,0,1-1.807-1.634l-.086-11.957h-13.935a11.4,11.4,0,0,1-5.505-2.408,11.6,11.6,0,0,1-3.957-6.538v-14.279h-33.2a7,7,0,0,0-3.784,2.408,6.869,6.869,0,0,0-1.376,3.1q-.086,37.332-.172,74.665a7.28,7.28,0,0,0,1.72,3.268,7.39,7.39,0,0,0,4.129,2.236h50.893a7.886,7.886,0,0,0,5.191-5.333V3463.9a2.2,2.2,0,0,1,4.215.041v5.74a12.789,12.789,0,0,1-4.043,6.605,12.625,12.625,0,0,1-5.464,2.716H2312.8a11.045,11.045,0,0,1-7.074-3.748,10.868,10.868,0,0,1-2.495-6.177Q2303.4,3431.69,2303.572,3394.306Z"/><path class="b" d="M2420.967,3403.111l16,16-11.01-.172a6.726,6.726,0,0,1-3.7-2.323,6.64,6.64,0,0,1-1.376-3.269Q2420.924,3408.229,2420.967,3403.111Z" transform="translate(-70.342 -11.127)"/><rect class="a" width="24.429" height="4.473" rx="1.734" transform="translate(2315.271 3417.359)"/><rect class="a" width="44.902" height="4.473" rx="1.734" transform="translate(2315.271 3431.638)"/><rect class="a" width="32.687" height="4.473" rx="1.734" transform="translate(2315.271 3445.746)"/><rect class="a" width="32.687" height="4.473" rx="1.734" transform="translate(2315.271 3459.853)"/><path class="a" d="M2422.559,3506.853l29.247-25.633a1.806,1.806,0,0,1,1.118-.258,1.872,1.872,0,0,1,1.29.774l9.118,10.494a2.316,2.316,0,0,1-.516,2.409l-28.473,25.2-12.9.688a3.107,3.107,0,0,1-1.2-2.581Z" transform="translate(-69.956 -57.667)"/><path class="b" d="M2433.339,3516.519l-1.549,7.4,7.742-.516,25.806-22.709-6.021-6.882Z" transform="translate(-76.865 -65.354)"/></g></g></svg>