<svg xmlns="http://www.w3.org/2000/svg" xmlns:xlink="http://www.w3.org/1999/xlink" width="351" height="273" viewBox="0 0 351 273"><defs><style>.a{mix-blend-mode:multiply;isolation:isolate;fill:url(#a);}.b,.d{fill:#fff;}.b{stroke:#000;stroke-miterlimit:10;}.c{fill:url(#b);}</style><radialGradient id="a" cx="0.5" cy="0.5" r="0.643" gradientTransform="translate(0.111 0.105) scale(0.778)" gradientUnits="objectBoundingBox"><stop offset="0" stop-color="#698bbf"/><stop offset="0.033" stop-color="#7a98c6"/><stop offset="0.114" stop-color="#9db3d5"/><stop offset="0.202" stop-color="#bbcbe2"/><stop offset="0.299" stop-color="#d4deec"/><stop offset="0.407" stop-color="#e7ecf4"/><stop offset="0.533" stop-color="#f4f7fa"/><stop offset="0.692" stop-color="#fcfdfe"/><stop offset="1" stop-color="#fff"/></radialGradient><linearGradient id="b" y1="0.5" x2="1" y2="0.5" gradientUnits="objectBoundingBox"><stop offset="0" stop-color="#ae80f5"/><stop offset="0.233" stop-color="#9b75ec"/><stop offset="1" stop-color="#6153d3"/></linearGradient></defs><g transform="translate(-785 -247.7)"><g transform="translate(-2008.496 -1337.913)"><ellipse class="a" cx="175.5" cy="136.5" rx="175.5" ry="136.5" transform="translate(2793.496 1585.613)"/><circle class="b" cx="101.98" cy="101.98" r="101.98" transform="translate(2862.257 1626.565)"/><path d="M2984.161,1721.748a31.325,31.325,0,1,0-40.38,0,28.9,28.9,0,0,0-14.842,25.25v31.695H2999V1747A28.9,28.9,0,0,0,2984.161,1721.748Z"/><path class="c" d="M3055.941,1803.62a20.335,20.335,0,1,1-20.335-20.336A20.334,20.334,0,0,1,3055.941,1803.62Z"/><circle class="d" cx="13.772" cy="13.772" r="13.772" transform="translate(3021.834 1789.848)"/></g></g></svg>