<svg xmlns="http://www.w3.org/2000/svg" xmlns:xlink="http://www.w3.org/1999/xlink" width="1919.942" height="1077" viewBox="0 0 1919.942 1077"><defs><style>.a{fill:none;}.b{fill:#f2f2f4;}.c{clip-path:url(#a);}.d{opacity:0.2;fill:url(#b);}.e{opacity:0.5;fill:url(#c);}.f{fill:url(#d);}</style><clipPath id="a"><rect class="a" width="1919.942" height="1074" rx="4.159" transform="translate(2.379 1353.131)"/></clipPath><linearGradient id="b" x1="0.565" y1="1.155" x2="0.463" y2="-0.079" gradientUnits="objectBoundingBox"><stop offset="0" stop-color="#84d4f6"/><stop offset="0.596" stop-color="#5b76ce"/><stop offset="1" stop-color="#423cb5"/></linearGradient><linearGradient id="c" x1="5.543" y1="1.155" x2="5.441" y2="-0.079" gradientUnits="objectBoundingBox"><stop offset="0" stop-color="#29abe2"/><stop offset="0.459" stop-color="#3476cc"/><stop offset="1" stop-color="#423cb5"/></linearGradient><linearGradient id="d" x1="0.565" y1="1.155" x2="0.463" y2="-0.079" gradientUnits="objectBoundingBox"><stop offset="0" stop-color="#3fa9f5"/><stop offset="0.31" stop-color="#498dea"/><stop offset="1" stop-color="#6153d3"/></linearGradient></defs><g transform="translate(-1 -2)"><g transform="translate(-1.379 -1351.131)"><rect class="b" width="1919.942" height="1076.965" rx="4.159" transform="translate(2.379 1353.166)"/><g class="c"><path class="d" d="M-365.516,1461.921s401.507,576.837,837.042,576.837S1138.436,1821.6,1485.5,1821.6s510.39,346.1,809.819,346.1V-594.33H-365.516Z"/><path class="e" d="M2325.946,1280.388s-401.508,576.836-837.042,576.836S821.993,1640.062,474.927,1640.062s-510.391,346.1-809.821,346.1V-775.864h2660.84Z"/><path class="f" d="M-401.244,1159.931S.264,1736.768,435.8,1736.768,1102.708,1519.6,1449.774,1519.6s510.391,346.1,809.821,346.1V-896.321H-401.244Z"/></g></g></g></svg>