<svg xmlns="http://www.w3.org/2000/svg" xmlns:xlink="http://www.w3.org/1999/xlink" width="324.948" height="298.521" viewBox="0 0 324.948 298.521"><defs><style>.a{mix-blend-mode:multiply;isolation:isolate;fill:url(#a);}.b{fill:#fff;}.c{opacity:0.25;}</style><radialGradient id="a" cx="0.5" cy="0.5" r="0.544" gradientTransform="translate(0.041 0.044) scale(0.919 0.919)" gradientUnits="objectBoundingBox"><stop offset="0" stop-color="#423cb5"/><stop offset="0.081" stop-color="#6762c3"/><stop offset="0.182" stop-color="#8f8cd3"/><stop offset="0.289" stop-color="#b2afe0"/><stop offset="0.401" stop-color="#cecceb"/><stop offset="0.521" stop-color="#e3e2f4"/><stop offset="0.65" stop-color="#f3f2fa"/><stop offset="0.797" stop-color="#fcfcfd"/><stop offset="1" stop-color="#fff"/></radialGradient></defs><g transform="translate(-798 -271.739)"><g transform="translate(158.364 -1169.873)"><ellipse class="a" cx="162.474" cy="149.261" rx="162.474" ry="149.261" transform="translate(639.636 1441.612)"/><g transform="translate(700.537 1457.804)"><circle class="b" cx="100.182" cy="100.182" r="100.182" transform="translate(0 0)"/><g transform="translate(38.575 23.619)"><g class="c"><path d="M842.909,1606.461c.4.109-.4,2.268-.38,5.87.068,12.71,10.193,22.389,13.019,25.09,5.759,5.5,11.073,7.893,20.572,12.052,14.751,6.459,17.351,4.64,31.077,10.63,19.445,8.485,23.489,14.533,25.141,19.147a22.6,22.6,0,0,1,.609,13.456c-.744,2.619-2.8,5.624-6.913,11.633-1.172,1.712-2.232,3.16-2.672,2.964-.607-.27.826-3.269.959-6.491.314-7.619-6.753-13.757-8.861-15.588a34.921,34.921,0,0,0-11.777-6.468c-13.247-4.878-19.156-5.674-26.593-8.107-6.891-2.255-24.553-8.032-34.684-23.518a34.464,34.464,0,0,1-5.538-12.666C834,1620.042,841.875,1606.178,842.909,1606.461Z" transform="translate(-836.24 -1562.861)"/><path d="M882.614,1520.307c.395.172-.3,1.893-.792,5.365a52.322,52.322,0,0,0,.623,15.448c2.74,14.316,17.145,25.869,21.748,29.559,5.85,4.692,11.052,7.494,19.6,12.143,8.273,4.5,8.79,4.072,16.151,7.969,7.5,3.97,20.216,10.638,29.05,21.822a27.725,27.725,0,0,1,3.986,6.48,22.92,22.92,0,0,1,2.062,10.652,23.417,23.417,0,0,1-4.333,11.813,62.821,62.821,0,0,1-6.76,8.044l-.114.118a31.051,31.051,0,0,1-3.662,2.95c-.79.624-1.174.982-1.274.9s.178-.606.457-1.061a27.153,27.153,0,0,0,1.176-4.343,30.9,30.9,0,0,0,.436-5.7c-.209-6.906-8.666-17.822-15.754-23.07a50.492,50.492,0,0,0-11.109-6.242c-13.11-5.363-50.022-20.463-60.2-47.231a44.633,44.633,0,0,1-2.478-21.931C873.365,1530.533,881.565,1519.85,882.614,1520.307Z" transform="translate(-853.409 -1520.293)"/><path d="M1008.009,1629.769a13.207,13.207,0,0,0,5.474,6.9,12.791,12.791,0,0,0,5.626,1.816q-.528,2.247-1.057,4.493l19.557,14.8c.6-11.523,6.253-21.354,15.062-25.237a22.607,22.607,0,0,1,11.1-1.719,14.489,14.489,0,0,0-5.41-4.1,14.87,14.87,0,0,0-9.653-.656,7.775,7.775,0,0,0-1.457-1.668,8.8,8.8,0,0,0-5.785-1.958,10.625,10.625,0,0,0-4.526,1.086c-8.837,4.145-17.965,8.425-26.142,6.971A17.994,17.994,0,0,1,1008.009,1629.769Z" transform="translate(-921.099 -1570.758)"/></g><g transform="translate(21.301 65.557)"><g transform="translate(56.745 0.388)"><path d="M990.49,1669.184l.464,5.011,4.557-15.995Z" transform="translate(-990.49 -1654.369)"/><path d="M994.283,1674.987l1.2,4.889,2.156-16.491Z" transform="translate(-992.364 -1656.93)"/><path d="M999.544,1678.873l1.866,4.674-.164-16.63Z" transform="translate(-994.963 -1658.675)"/><path d="M1002.128,1650.628h2.99l7.886,19.5-2.71,0Z" transform="translate(-996.24 -1650.628)"/></g><path d="M940.165,1649.861v2.315h7.742v19.511H951v-19.511h7.742v-2.315Z" transform="translate(-908.883 -1649.861)"/><rect width="3.097" height="21.826" transform="translate(20.647)"/><path d="M878.339,1649.861h12.2v2.315h-9.1v7.314h7.639v2.286h-7.639v9.91h-3.1Z" transform="translate(-878.339 -1649.861)"/><path d="M1047.228,1649.861h3.1v19.511h9.822v2.315h-12.919Z" transform="translate(-961.775 -1649.861)"/></g></g></g></g></g></svg>